HIERARCHY
ROOT Hips
{
  OFFSET 279.157 85.6768 304.565
  CHANNELS 6 Xposition Yposition Zposition Zrotation Xrotation Yrotation
  JOINT LeftUpLeg
  {
    OFFSET 8.64259 1.95398 -2.38835
    CHANNELS 3 Zrotation Xrotation Yrotation
    JOINT LeftLeg
    {
      OFFSET 43.7702 0 0
      CHANNELS 3 Zrotation Xrotation Yrotation
      JOINT LeftFoot
      {
        OFFSET 40.6238 0 0
        CHANNELS 3 Zrotation Xrotation Yrotation
        JOINT LeftToeBase
        {
          OFFSET 12.7242 0 0
          CHANNELS 3 Zrotation Xrotation Yrotation
          End Site
          {
            OFFSET 0 0 0
          }
        }
      }
    }
  }
  JOINT RightUpLeg
  {
    OFFSET -8.2249 1.95398 -2.59336
    CHANNELS 3 Zrotation Xrotation Yrotation
    JOINT RightLeg
    {
      OFFSET 43.5653 0 0
      CHANNELS 3 Zrotation Xrotation Yrotation
      JOINT RightFoot
      {
        OFFSET 40.6238 0 0
        CHANNELS 3 Zrotation Xrotation Yrotation
        JOINT RightToeBase
        {
          OFFSET 12.7242 0 0
          CHANNELS 3 Zrotation Xrotation Yrotation
          End Site
          {
            OFFSET 0 0 0
          }
        }
      }
    }
  }
  JOINT Spine
  {
    OFFSET 0.165834 0.87714 6.61349
    CHANNELS 3 Zrotation Xrotation Yrotation
    JOINT Spine1
    {
      OFFSET 7.38963 1.71661e-005 0
      CHANNELS 3 Zrotation Xrotation Yrotation
      JOINT Spine2
      {
        OFFSET 11.9445 1.14441e-005 0
        CHANNELS 3 Zrotation Xrotation Yrotation
        JOINT Spine3
        {
          OFFSET 14.7254 4.19617e-005 0
          CHANNELS 3 Zrotation Xrotation Yrotation
          JOINT Spine4
          {
            OFFSET 10.9679 0 0
            CHANNELS 3 Zrotation Xrotation Yrotation
            JOINT RightShoulder
            {
              OFFSET 2.46616 -1.6653 3.69651
              CHANNELS 3 Zrotation Xrotation Yrotation
              JOINT RightArm
              {
                OFFSET 13.0012 0 0
                CHANNELS 3 Zrotation Xrotation Yrotation
                JOINT RightForeArm
                {
                  OFFSET 28.7848 1.52588e-005 0
                  CHANNELS 3 Zrotation Xrotation Yrotation
                  JOINT RightHand
                  {
                    OFFSET 26.5688 1.52588e-005 0
                    CHANNELS 3 Zrotation Xrotation Yrotation
                    End Site
                    {
                      OFFSET 0 0 0
                    }
                  }
                }
              }
            }
            JOINT LeftShoulder
            {
              OFFSET 2.38034 -1.29275 -3.7523
              CHANNELS 3 Zrotation Xrotation Yrotation
              JOINT LeftArm
              {
                OFFSET 16.3182 6.10351e-005 0
                CHANNELS 3 Zrotation Xrotation Yrotation
                JOINT LeftForeArm
                {
                  OFFSET 27.0901 0 0
                  CHANNELS 3 Zrotation Xrotation Yrotation
                  JOINT LeftHand
                  {
                    OFFSET 24.5451 1.52588e-005 0
                    CHANNELS 3 Zrotation Xrotation Yrotation
                    End Site
                    {
                      OFFSET 0 0 0
                    }
                  }
                }
              }
            }
            JOINT Neck
            {
              OFFSET 5.0226 -0.0266342 0
              CHANNELS 3 Zrotation Xrotation Yrotation
              JOINT Head
              {
                OFFSET 6.69364 2.86102e-005 0
                CHANNELS 3 Zrotation Xrotation Yrotation
                End Site
                {
                  OFFSET 0 0 0
                }
              }
            }
          }
        }
      }
    }
  }
}
MOTION
Frames:	9
Frame Time:	0.0416667
34.1074 9.36622 43.7163 5.52049 -11.6949 0.961539 -172.65 -6.45684 96.3016 -21.8703 14.925 2.97357 82.8036 16.8576 -0.888919 18.754 -7.63885 6.1692 169.526 -9.19143 86.1574 -21.1999 -2.81175 1.96077 80.2896 -11.773 -0.105533 41.7361 -4.40311 1.17991 0.168552 5.97208 -90.2541 14.93 0.207343 -0.541589 3.25891 0.183306 -0.550195 -19.2757 0.36052 -0.454253 0.736962 0.360522 -0.454243 93.8391 -13.1706 -105.239 36.4531 -10.7769 26.7631 -66.8019 23.472 -88.449 -71.0613 -11.249 5.10558 -87.755 -30.004 77.6091 -3.20899 5.03793 12.86 56.0576 -17.8953 -106.687 52.5097 9.82435 14.5945 64.0171 -5.03211 -3.51107 -23.2727 -2.25508 1.40865 
34.0729 9.34208 43.7254 5.60104 -11.7684 0.886295 -172.328 -6.33523 96.4548 -22.1959 15.2622 2.7532 82.4277 16.6331 -0.666981 18.3037 -7.91039 6.13161 169.526 -9.23588 86.0534 -21.3547 -2.14855 1.92521 80.7204 -11.5216 1.14037 41.4081 -4.293 0.637339 0.16122 5.98288 -90.2561 14.9083 0.191871 -0.543218 3.23722 0.167783 -0.551136 -19.2973 0.346256 -0.46044 0.715298 0.346256 -0.460448 93.9073 -12.9681 -105.156 36.1759 -10.517 26.6715 -69.0737 22.8367 -88.4442 -69.5755 -12.2552 6.79118 -87.8205 -30.2699 77.5589 -2.86866 5.14308 12.7577 55.6151 -17.9598 -106.818 51.6281 9.65005 14.615 61.5275 -5.12571 -4.29626 -19.8396 -2.17123 3.11884 
34.0476 9.33738 43.6978 5.51245 -11.7779 0.804402 -172.193 -6.51647 96.536 -21.7892 15.4122 2.59743 83.0613 16.9778 -1.14251 17.762 -8.37847 6.45972 169.508 -9.06016 85.9904 -21.6705 -2.3492 1.90659 80.6812 -11.5347 0.79281 41.5776 -4.34982 0.814809 0.181698 6.00142 -90.2418 14.8714 0.239579 -0.52136 3.20035 0.216404 -0.531402 -19.3344 0.38519 -0.425256 0.678286 0.385194 -0.425262 94.0556 -13.0097 -104.733 35.6023 -10.1306 26.259 -71.0307 22.0067 -88.7064 -68.004 -13.3826 8.82133 -87.9412 -29.8725 77.2128 -2.82645 4.8562 12.9792 55.5246 -17.8404 -106.857 52.0915 9.71967 14.5625 60.6756 -5.42535 -5.06013 -18.4183 -2.13307 4.40996 
34.0622 9.36326 43.7017 5.64751 -11.7627 0.780271 -172.31 -6.43841 96.4495 -21.8486 15.3597 2.64924 82.955 16.9074 -1.15334 17.7757 -8.44044 6.64524 169.459 -9.02206 85.9207 -21.7234 -2.08491 1.9429 80.8062 -11.4442 1.1935 41.5355 -4.33724 1.08569 0.152481 5.99195 -90.2592 14.8902 0.173122 -0.546587 3.21913 0.148894 -0.553678 -19.3154 0.329387 -0.469286 0.697277 0.32938 -0.469299 93.9911 -12.786 -105.019 35.5986 -10.209 26.3657 -72.0127 21.6877 -88.342 -67.1298 -13.5623 9.32771 -87.8988 -30.5401 77.4866 -2.38316 5.19577 12.937 55.3661 -17.909 -106.91 52.0296 9.80404 14.7492 60.6091 -5.22614 -4.8754 -18.5417 -2.06708 4.28797 
34.0435 9.34501 43.7069 5.66577 -11.7662 0.768616 -172.225 -6.47413 96.5014 -21.8217 15.5613 2.60682 82.9785 16.9337 -1.08977 17.9173 -8.37281 6.70638 169.499 -9.03298 85.9454 -21.7261 -1.98986 1.9018 80.8154 -11.4219 1.30396 41.7226 -4.39659 0.489275 0.141253 5.98589 -90.2629 14.9022 0.149045 -0.550439 3.23109 0.124678 -0.556487 -19.3034 0.307581 -0.480207 0.709241 0.307588 -0.480213 93.9643 -12.7986 -105.085 35.5528 -10.3829 26.4642 -72.5865 21.6826 -88.1973 -65.5911 -13.3689 9.51801 -87.7003 -30.6648 77.9013 -2.55667 5.55978 12.7897 55.3449 -17.9543 -106.623 51.0216 9.27743 14.1353 60.7771 -5.08234 -4.60857 -18.8739 -2.05861 3.896 
34.0363 9.33138 43.7059 5.7099 -11.7104 0.793314 -172.286 -6.36896 96.5061 -21.8919 15.5909 2.6499 82.9162 16.8686 -1.14437 17.9178 -8.26773 6.42941 169.517 -9.01668 86.0086 -21.7009 -2.08835 1.9157 80.7123 -11.4835 0.942344 41.5819 -4.35246 1.09828 0.120319 5.96674 -90.3006 14.9401 0.0887778 -0.617626 3.26906 0.0615076 -0.620948 -19.2651 0.270289 -0.562388 0.747549 0.270291 -0.562395 93.9253 -12.3879 -105.401 36.2321 -10.9313 26.7492 -70.3879 22.624 -88.051 -68.3349 -12.3633 7.22418 -87.9798 -31.1856 77.5168 -1.95336 5.42456 13.2673 55.0118 -18.0227 -106.982 51.5778 9.6326 14.6006 60.8768 -4.64978 -4.11092 -19.0906 -1.96066 3.57459 
34.0116 9.33978 43.6927 5.65233 -11.7646 0.739204 -172.257 -6.4808 96.4793 -21.7859 15.6321 2.61422 82.836 16.93 -0.918887 17.9227 -8.14623 6.11587 169.514 -9.00546 85.9673 -21.7877 -2.02811 1.8921 80.7812 -11.4893 1.02851 41.7293 -4.40038 1.01375 0.11902 5.95151 -90.3275 14.9707 0.0727935 -0.669123 3.29958 0.0432741 -0.671685 -19.2344 0.270522 -0.616317 0.778279 0.270519 -0.616318 93.8734 -12.0513 -105.719 35.7256 -10.288 26.9252 -72.5779 21.5215 -88.2768 -67.341 -14.061 10.0126 -88.0713 -32.2236 77.6324 -0.972678 5.61642 13.2025 54.7287 -18.0493 -106.872 50.8887 9.36095 14.3523 60.8185 -4.13731 -3.45353 -19.1772 -1.8509 2.94267 
34.0175 9.33255 43.6919 5.83852 -11.7631 0.708332 -172.304 -6.46332 96.449 -21.7872 15.7081 2.62977 82.858 16.9287 -0.981895 17.8553 -8.22583 6.21395 169.428 -9.05213 85.8793 -21.7515 -1.84786 1.95233 80.8953 -11.4207 1.35757 41.5165 -4.32942 0.739324 0.0895244 5.96575 -90.3333 14.9418 0.011633 -0.671848 3.2707 -0.0179377 -0.671706 -19.2632 0.213009 -0.637282 0.749496 0.213007 -0.637289 94.0167 -11.7119 -105.498 36.0693 -10.5421 26.7228 -73.0505 21.6118 -87.9208 -66.7317 -13.8711 9.88176 -87.666 -32.1931 78.3849 -1.2075 5.71725 12.6058 54.9332 -17.9298 -106.748 51.3912 9.50025 14.4215 61.2449 -4.08534 -3.45358 -19.4394 -1.77928 2.86372 
33.9986 9.31688 43.6884 5.9023 -11.744 0.702023 -172.252 -6.45613 96.4978 -21.8005 15.9137 2.59218 82.9527 16.8856 -1.20967 17.9685 -8.54974 7.25854 169.436 -9.03536 85.9071 -21.7905 -1.81596 1.96329 80.8028 -11.4421 1.09357 41.8996 -4.45656 1.30932 0.0785906 5.93319 -90.385 15.0068 -0.0359247 -0.768915 3.33567 -0.0697218 -0.766582 -19.1977 0.196817 -0.744162 0.814896 0.196821 -0.744168 93.9777 -11.0437 -105.966 36.6498 -10.6964 27.2652 -71.6277 22.1809 -87.9829 -66.7971 -12.9144 8.46942 -87.8128 -33.5343 78.4654 -0.170595 6.03021 12.2472 54.6863 -17.8652 -106.578 50.6386 9.33833 14.4074 61.2954 -3.32448 -1.99284 -19.9623 -1.89642 1.54115 
